{"accessors":[{"bufferView":0,"byteOffset":0,"componentType":5126,"count":672,"max":[0.493185639381409,0.88748973608017,0.322839498519897],"min":[-0.403301954269409,-0.047739177942276,-0.434645056724548],"normalized":false,"type":"VEC3"},{"bufferView":1,"byteOffset":0,"componentType":5126,"count":672,"max":[1.0,0.992560982704163,0.982642829418182,1.0],"min":[-0.998918950557709,-0.066048838198185,-0.998390555381775,-1.0],"normalized":false,"type":"VEC4"},{"bufferView":2,"byteOffset":0,"componentType":5126,"count":672,"max":[0.999553620815277,0.4383664727211,0.996544718742371],"min":[-0.99955552816391,-0.4383704662323,-0.996543824672699],"normalized":false,"type":"VEC3"},{"bufferView":3,"byteOffset":0,"componentType":5126,"count":672,"max":[0.0771643817424774,0.0961572527885437],"min":[0.0487626791000366,0.0227361917495728],"normalized":false,"type":"VEC2"},{"bufferView":4,"byteOffset":0,"componentType":5123,"count":1584,"max":[671.0],"min":[0.0],"normalized":false,"type":"SCALAR"},{"bufferView":5,"byteOffset":0,"componentType":5126,"count":672,"max":[0.493185639381409,0.88748973608017,0.322839498519897],"min":[-0.403301954269409,-0.047739177942276,-0.434645056724548],"normalized":false,"type":"VEC3"},{"bufferView":6,"byteOffset":0,"componentType":5126,"count":672,"max":[1.0,0.992560982704163,0.982642829418182,1.0],"min":[-0.998918950557709,-0.066048838198185,-0.998390555381775,-1.0],"normalized":false,"type":"VEC4"},{"bufferView":7,"byteOffset":0,"componentType":5126,"count":672,"max":[0.999553620815277,0.4383664727211,0.996544718742371],"min":[-0.99955552816391,-0.4383704662323,-0.996543824672699],"normalized":false,"type":"VEC3"},{"bufferView":8,"byteOffset":0,"componentType":5126,"count":672,"max":[0.0771643817424774,0.0961572527885437],"min":[0.0487626791000366,0.0227361917495728],"normalized":false,"type":"VEC2"},{"bufferView":9,"byteOffset":0,"componentType":5123,"count":1584,"max":[671.0],"min":[0.0],"normalized":false,"type":"SCALAR"},{"bufferView":10,"byteOffset":0,"componentType":5126,"count":672,"max":[0.493185639381409,0.88748973608017,0.322839498519897],"min":[-0.403301954269409,-0.047739177942276,-0.434645056724548],"normalized":false,"type":"VEC3"},{"bufferView":11,"byteOffset":0,"componentType":5126,"count":672,"max":[1.0,0.992560982704163,0.982642829418182,1.0],"min":[-0.998918950557709,-0.066048838198185,-0.998390555381775,-1.0],"normalized":false,"type":"VEC4"},{"bufferView":12,"byteOffset":0,"componentType":5126,"count":672,"max":[0.999553620815277,0.4383664727211,0.996544718742371],"min":[-0.99955552816391,-0.4383704662323,-0.996543824672699],"normalized":false,"type":"VEC3"},{"bufferView":13,"byteOffset":0,"componentType":5126,"count":672,"max":[0.0771643817424774,0.0961572527885437],"min":[0.0487626791000366,0.0227361917495728],"normalized":false,"type":"VEC2"},{"bufferView":14,"byteOffset":0,"componentType":5123,"count":1584,"max":[671.0],"min":[0.0],"normalized":false,"type":"SCALAR"}],"asset":{"generator":"Godot Engine v4.4.1.stable.official@49a5bc7b616bd04689a2c89e89bda41f50241464","version":"2.0"},"bufferViews":[{"buffer":0,"byteLength":8064,"byteOffset":0,"byteStride":12,"target":34962},{"buffer":0,"byteLength":10752,"byteOffset":8064,"byteStride":16,"target":34962},{"buffer":0,"byteLength":8064,"byteOffset":18816,"byteStride":12,"target":34962},{"buffer":0,"byteLength":5376,"byteOffset":26880,"byteStride":8,"target":34962},{"buffer":0,"byteLength":3168,"byteOffset":32256,"target":34963},{"buffer":0,"byteLength":8064,"byteOffset":35424,"byteStride":12,"target":34962},{"buffer":0,"byteLength":10752,"byteOffset":43488,"byteStride":16,"target":34962},{"buffer":0,"byteLength":8064,"byteOffset":54240,"byteStride":12,"target":34962},{"buffer":0,"byteLength":5376,"byteOffset":62304,"byteStride":8,"target":34962},{"buffer":0,"byteLength":3168,"byteOffset":67680,"target":34963},{"buffer":0,"byteLength":8064,"byteOffset":70848,"byteStride":12,"target":34962},{"buffer":0,"byteLength":10752,"byteOffset":78912,"byteStride":16,"target":34962},{"buffer":0,"byteLength":8064,"byteOffset":89664,"byteStride":12,"target":34962},{"buffer":0,"byteLength":5376,"byteOffset":97728,"byteStride":8,"target":34962},{"buffer":0,"byteLength":3168,"byteOffset":103104,"target":34963}],"buffers":[{"byteLength":106272,"uri":"test_grass_10.bin"}],"extensionsUsed":["GODOT_single_root"],"images":[{"uri":"textures%2Fforest_albedo000.png"}],"materials":[{"extensions":{},"name":"forest","pbrMetallicRoughness":{"baseColorFactor":[1.0,1.0,1.0,1.0],"baseColorTexture":{"index":0},"metallicFactor":0.0,"roughnessFactor":0.600000023841858}}],"meshes":[{"extras":{"targetNames":[]},"primitives":[{"attributes":{"NORMAL":2,"POSITION":0,"TANGENT":1,"TEXCOORD_0":3},"indices":4,"material":0,"mode":4}]},{"extras":{"targetNames":[]},"primitives":[{"attributes":{"NORMAL":7,"POSITION":5,"TANGENT":6,"TEXCOORD_0":8},"indices":9,"material":0,"mode":4}]},{"extras":{"targetNames":[]},"primitives":[{"attributes":{"NORMAL":12,"POSITION":10,"TANGENT":11,"TEXCOORD_0":13},"indices":14,"material":0,"mode":4}]}],"nodes":[{"children":[1],"name":"test_grass1"},{"children":[2,3,4],"name":"Node3D"},{"mesh":0,"name":"00Grass_2_C_Color1"},{"mesh":1,"name":"00Grass_2_C_Color2","scale":[1.0,1.5,1.0],"translation":[0.390451997518539,0.0,0.0]},{"mesh":2,"name":"00Grass_2_C_Color3","scale":[1.0,1.5,1.0],"translation":[0.390451997518539,0.0,0.568535983562469]}],"samplers":[{"magFilter":9729,"minFilter":9987,"wrapS":10497,"wrapT":10497}],"scene":0,"scenes":[{"nodes":[0]}],"textures":[{"sampler":0,"source":0}]}